<svg width="600" height="700" viewbox = "0 0 600 700"  xmlns="http://www.w3.org/2000/svg">
<!--<json>{
  "glyph": "0331,0331,0333,0333,0331,0333,0331,0331,0333,0532,0521,0530,0522,0530,0524,0530,0531,0521,0530,0521,0530,0527,0530,0531,0521,0530,0521,0530,0530,0234,0330,0330,0330,0330,0330,0330,0330,0330,0235,0530,0531,0521,0530,0521,0530,0525,0530,0531,0521,0530,0520,0530,0521,0530,0531,0521,0530,0521,0530,0526,0530,0531,0521,0530,0523,0530,0521,0530,0531,0234,0330,0330,0330,0330,0330,0330,0330,0330,0330,0330,0330,0330,0235,0530,0531,0521,0530,0522,0530,0523,0530,0531,0521,0530,0520,0530,0525,0530,0531,0521,0530,0520,0530,0523,0530,0531,0521,0530,0522,0530,0522,0530,0531,0521,0530,0520,0530,0525,0530,0531,0521,0530,0522,0530,0524,0530,0531,0521,0530,0522,0530,0523,0530,0531,0533,",
  "x0": 366.55,
  "y0": 7.644416080766973,
  "unit": 23.32536901048666,
  "width": 600,
  "height": 700,
  "style": {
    "color0": "black",
    "fill0": "black",
    "line0": 1,
    "color1": "black",
    "fill1": "black",
    "line1": 5,
    "color2": "red",
    "fill2": "red",
    "line2": 1,
    "color3": "#FF7900",
    "fill3": "#FF7900",
    "line3": 1,
    "color4": "yellow",
    "fill4": "yellow",
    "line4": 1,
    "color5": "green",
    "fill5": "green",
    "line5": 1,
    "color6": "blue",
    "fill6": "blue",
    "line6": 1,
    "color7": "purple",
    "fill7": "purple",
    "line7": 1
  },
  "shapes": [
    "0220:0520,",
    "0221:0521,",
    "0222:0522,",
    "0223:0523,",
    "0224:0524,",
    "0225:0525,",
    "0226:0526,",
    "0227:0527,",
    "0230:0530,",
    "0231:0531,",
    "0232:0532,",
    "0233:0533,",
    "0234:0331,0534,",
    "0235:0535,",
    "0236:0536,",
    "0237:0220,0336,0331,0332,0336,0321,0342,0335,0342,0335,0342,0335,0342,0335,0330,0330,0333,0333,0337,0337,",
    "01220:0333,0200,",
    "01221:0333,0200,0336,0336,0330,0221,0337,0337,",
    "01222:0333,0200,0336,0336,0330,0222,0337,0337,",
    "01223:0333,0200,0336,0336,0330,0223,0337,0337,",
    "01224:0333,0200,0336,0336,0330,0224,0337,0337,",
    "01225:0333,0200,0336,0336,0330,0225,0337,0337,",
    "01226:0333,0200,0336,0336,0330,0226,0337,0337,",
    "01227:0333,0200,0336,0336,0330,0227,0337,0337,",
    "01230:0333,0200,0336,0336,0330,0230,0331,0337,0337,",
    "01231:0333,0200,0336,0336,0330,0231,0331,0337,0337,",
    "01232:0333,0200,0336,0336,0232,0337,0337,",
    "01233:0333,0200,0336,0336,0330,0233,0331,0330,0337,0337,",
    "01234:0333,0200,0336,0336,0330,0330,0330,0234,0331,0331,0333,0333,0331,0331,0333,0333,0337,0337,0333,0333,0333,",
    "01235:0333,0200,0336,0336,0330,0235,0331,0333,0337,0337,",
    "01236:0333,0200,",
    "01237:0333,0200,",
    "0240:0220,0336,0331,0333,0336,0321,0335,0342,0335,0335,0342,0335,0330,0330,0332,0332,0337,0337,",
    "01240:0333,0200,0336,0330,0332,0210,0240,0211,0333,0331,0337,",
    "0241:0220,0336,0321,0343,0332,0350,0335,0336,0342,0334,0334,0342,0335,0304,0337,0333,0337,",
    "01241:0333,0200,0336,0332,0330,0210,0241,0211,0333,0331,0337,",
    "0242:0220,0321,0336,0343,0333,0336,0350,0335,0342,0334,0334,0342,0335,0337,0304,0332,0337,",
    "01242:0333,0200,0336,0330,0332,0210,0242,0211,0333,0331,0337,",
    "0243:0220,0336,0331,0332,0336,0321,0343,0332,0350,0334,0336,0342,0335,0335,0342,0337,0334,0334,0335,0304,0332,0330,0330,0337,0337,0333,",
    "01243:0333,0200,0336,0330,0332,0210,0243,0211,0333,0331,0337,",
    "0244:0220,0336,0331,0333,0336,0321,0343,0333,0350,0336,0335,0342,0334,0334,0342,0335,0337,0304,0333,0330,0330,0337,0337,0332,",
    "01244:0333,0200,0336,0330,0332,0210,0244,0211,0333,0331,0337,",
    "0245:0210,0332,0332,0362,0335,0203,0203,0203,0203,0334,0203,0363,0332,0332,0331,0211,",
    "01245:0333,0200,0336,0330,0332,0336,0245,0337,0333,0331,0337,",
    "0246:0210,0332,0332,0335,0306,0336,0330,0335,0335,0335,0321,0362,0203,0335,0335,0203,0364,0331,0350,0335,0337,0366,0333,0333,0333,0333,0334,0334,0334,0334,0367,0335,0336,0342,0334,0334,0342,0330,0330,0330,0330,0335,0335,0335,0304,0337,0211,",
    "01246:0333,0200,0336,0330,0332,0336,0246,",
    "0247:0330,0332,0336,0332,0336,0221,0333,0333,0333,0222,0333,0333,0333,0223,0333,0333,0333,0225,0333,0331,0331,0331,0332,0332,0332,0332,0332,0332,0332,0332,0332,0332,0332,0332,0333,0333,0226,0331,0331,0331,0333,0333,0333,0333,0333,0333,0333,0333,0333,0333,0333,0333,0333,0330,0333,0330,0330,0333,0330,0331,0332,0332,0332,0332,0332,0332,0332,0332,0332,0332,0332,0332,0227,0333,0333,0333,0230,0333,0331,0331,0331,0331,0332,0332,0332,0330,0332,0332,0332,0332,0332,0332,0333,0333,0231,0333,0333,0333,0232,0331,0333,0330,0333,0333,0233,0333,0333,0333,0234,0330,0330,0332,0330,0332,0332,0337,0337,",
    "01247:0333,0200,0336,0330,0332,0220,0336,0247,0337,0331,0333,0337,"
  ]
}</json>-->	<path d = "M460 124 L460 101 L437 124 L460 124 Z" stroke = "#000000" stroke-width = "1" fill = "#000000" />	<path d = "M390 124 L390 101 L413 124 L390 124 Z" stroke = "#000000" stroke-width = "1" fill = "#000000" />	<path d = "M425 124 L448 101 L402 101 L425 124 Z" stroke = "#000000" stroke-width = "1" fill = "#000000" />    <circle cx="448" cy = "136" r = "11.66268450524333" stroke = "#000000" stroke-width = "1" fill = "#000000" />
    <line x1="460" y1="148" x2="460" y2="124" style="stroke:#000000;stroke-width:1" />
    <line x1="390" y1="148" x2="390" y2="124" style="stroke:#000000;stroke-width:1" />
    <line x1="460" y1="148" x2="472" y2="148" style="stroke:#000000;stroke-width:1" />
    <circle cx="425" cy = "159" r = "11.66268450524333" stroke = "#000000" stroke-width = "1" fill = "#000000" />
    <line x1="460" y1="171" x2="460" y2="148" style="stroke:#000000;stroke-width:1" />
    <line x1="390" y1="171" x2="390" y2="148" style="stroke:#000000;stroke-width:1" />
    <line x1="460" y1="171" x2="472" y2="171" style="stroke:#000000;stroke-width:1" />
    <circle cx="402" cy = "183" r = "11.66268450524333" stroke = "#000000" stroke-width = "1" fill = "#000000" />
    <line x1="460" y1="194" x2="460" y2="171" style="stroke:#000000;stroke-width:1" />
    <line x1="390" y1="194" x2="390" y2="171" style="stroke:#000000;stroke-width:1" />
    <line x1="460" y1="194" x2="472" y2="194" style="stroke:#000000;stroke-width:1" />
    <line x1="390" y1="194" x2="378" y2="194" style="stroke:#000000;stroke-width:1" />
    <line x1="390" y1="194" x2="413" y2="194" style="stroke:#000000;stroke-width:1" />
    <line x1="413" y1="194" x2="437" y2="194" style="stroke:#000000;stroke-width:1" />
    <line x1="437" y1="194" x2="460" y2="194" style="stroke:#000000;stroke-width:1" />
    <line x1="437" y1="200" x2="437" y2="188" style="stroke:#000000;stroke-width:1" />
    <line x1="413" y1="200" x2="413" y2="188" style="stroke:#000000;stroke-width:1" />
    <circle cx="448" cy = "206" r = "11.66268450524333" stroke = "#000000" stroke-width = "1" fill = "#000000" />
    <line x1="460" y1="218" x2="460" y2="194" style="stroke:#000000;stroke-width:1" />
    <line x1="390" y1="218" x2="390" y2="194" style="stroke:#000000;stroke-width:1" />
    <line x1="460" y1="218" x2="472" y2="218" style="stroke:#000000;stroke-width:1" />
    <circle cx="448" cy = "229" r = "11.66268450524333" stroke = "#000000" stroke-width = "1" fill = "#000000" />
    <line x1="460" y1="241" x2="460" y2="218" style="stroke:#000000;stroke-width:1" />
    <line x1="390" y1="241" x2="390" y2="218" style="stroke:#000000;stroke-width:1" />
    <line x1="460" y1="241" x2="472" y2="241" style="stroke:#000000;stroke-width:1" />
    <circle cx="402" cy = "253" r = "11.66268450524333" stroke = "#000000" stroke-width = "1" fill = "#000000" />
    <circle cx="425" cy = "253" r = "11.66268450524333" stroke = "#000000" stroke-width = "1" fill = "#000000" />
    <circle cx="448" cy = "253" r = "11.66268450524333" stroke = "#000000" stroke-width = "1" fill = "#000000" />
    <line x1="460" y1="264" x2="460" y2="241" style="stroke:#000000;stroke-width:1" />
    <line x1="390" y1="264" x2="390" y2="241" style="stroke:#000000;stroke-width:1" />
    <line x1="460" y1="264" x2="472" y2="264" style="stroke:#000000;stroke-width:1" />
    <line x1="390" y1="264" x2="378" y2="264" style="stroke:#000000;stroke-width:1" />
    <line x1="390" y1="264" x2="413" y2="264" style="stroke:#000000;stroke-width:1" />
    <line x1="413" y1="264" x2="437" y2="264" style="stroke:#000000;stroke-width:1" />
    <line x1="437" y1="264" x2="460" y2="264" style="stroke:#000000;stroke-width:1" />
    <line x1="437" y1="270" x2="437" y2="258" style="stroke:#000000;stroke-width:1" />
    <line x1="413" y1="270" x2="413" y2="258" style="stroke:#000000;stroke-width:1" />
    <circle cx="448" cy = "276" r = "11.66268450524333" stroke = "#000000" stroke-width = "1" fill = "#000000" />
    <line x1="460" y1="288" x2="460" y2="264" style="stroke:#000000;stroke-width:1" />
    <line x1="390" y1="288" x2="390" y2="264" style="stroke:#000000;stroke-width:1" />
    <line x1="460" y1="288" x2="472" y2="288" style="stroke:#000000;stroke-width:1" />
    <circle cx="448" cy = "299" r = "11.66268450524333" stroke = "#000000" stroke-width = "1" fill = "#000000" />
    <line x1="460" y1="311" x2="460" y2="288" style="stroke:#000000;stroke-width:1" />
    <line x1="390" y1="311" x2="390" y2="288" style="stroke:#000000;stroke-width:1" />
    <line x1="460" y1="311" x2="472" y2="311" style="stroke:#000000;stroke-width:1" />
    <line x1="460" y1="311" x2="460" y2="288" style="stroke:#000000;stroke-width:1" />
    <line x1="390" y1="311" x2="390" y2="288" style="stroke:#000000;stroke-width:1" />
    <line x1="460" y1="311" x2="472" y2="311" style="stroke:#000000;stroke-width:1" />
    <line x1="460" y1="334" x2="437" y2="334" style="stroke:#000000;stroke-width:1" />
    <line x1="437" y1="334" x2="413" y2="334" style="stroke:#000000;stroke-width:1" />
    <line x1="413" y1="334" x2="390" y2="334" style="stroke:#000000;stroke-width:1" />
    <line x1="390" y1="334" x2="390" y2="311" style="stroke:#000000;stroke-width:1" />
    <line x1="390" y1="311" x2="413" y2="311" style="stroke:#000000;stroke-width:1" />
    <line x1="413" y1="311" x2="437" y2="311" style="stroke:#000000;stroke-width:1" />
    <line x1="437" y1="311" x2="460" y2="311" style="stroke:#000000;stroke-width:1" />
    <line x1="460" y1="334" x2="460" y2="311" style="stroke:#000000;stroke-width:1" />
	<path d = "M437 334 L437 311 L413 311 L413 334 L437 334 Z" stroke = "#000000" stroke-width = "1" fill = "#000000" />  <path d="M424.8634225262164 334.19958222758027           A34.98805351572999 34.98805351572999 0 0 1 389.8753690104864 369.18763574331024" fill = "none" stroke = "#000000" stroke-width = "5" />
	<path d = "M367 369 L390 393 L390 346 L367 369 Z" stroke = "#000000" stroke-width = "1" fill = "#000000" />	<path d = "M390 334 L390 311 L367 334 L390 334 Z" stroke = "#000000" stroke-width = "1" fill = "#000000" />	<path d = "M367 101 L343 101 L343 124 L367 101 Z" stroke = "#000000" stroke-width = "1" fill = "#000000" />    <line x1="343" y1="124" x2="320" y2="124" style="stroke:#000000;stroke-width:1" />
    <line x1="320" y1="124" x2="297" y2="124" style="stroke:#000000;stroke-width:1" />
    <line x1="297" y1="124" x2="273" y2="124" style="stroke:#000000;stroke-width:1" />
    <line x1="273" y1="124" x2="273" y2="101" style="stroke:#000000;stroke-width:1" />
    <line x1="273" y1="101" x2="297" y2="101" style="stroke:#000000;stroke-width:1" />
    <line x1="297" y1="101" x2="320" y2="101" style="stroke:#000000;stroke-width:1" />
    <line x1="320" y1="101" x2="343" y2="101" style="stroke:#000000;stroke-width:1" />
	<path d = "M308 124 L332 101 L285 101 L308 124 Z" stroke = "#000000" stroke-width = "1" fill = "#000000" />  <path d="M308.23657747378024 100.94589212271461           A34.98805351572998 34.98805351572998 0 0 1 343.2246309895097 65.9578386069843" fill = "none" stroke = "#000000" stroke-width = "5" />
    <line x1="343" y1="124" x2="343" y2="101" style="stroke:#000000;stroke-width:1" />
    <line x1="273" y1="124" x2="273" y2="101" style="stroke:#000000;stroke-width:1" />
    <line x1="343" y1="124" x2="355" y2="124" style="stroke:#000000;stroke-width:1" />
    <line x1="273" y1="124" x2="262" y2="124" style="stroke:#000000;stroke-width:1" />
    <line x1="273" y1="124" x2="297" y2="124" style="stroke:#000000;stroke-width:1" />
    <line x1="297" y1="124" x2="320" y2="124" style="stroke:#000000;stroke-width:1" />
    <line x1="320" y1="124" x2="343" y2="124" style="stroke:#000000;stroke-width:1" />
    <line x1="320" y1="130" x2="320" y2="118" style="stroke:#000000;stroke-width:1" />
    <line x1="297" y1="130" x2="297" y2="118" style="stroke:#000000;stroke-width:1" />
    <circle cx="332" cy = "136" r = "11.662684505243327" stroke = "#000000" stroke-width = "1" fill = "#000000" />
    <line x1="343" y1="148" x2="343" y2="124" style="stroke:#000000;stroke-width:1" />
    <line x1="273" y1="148" x2="273" y2="124" style="stroke:#000000;stroke-width:1" />
    <line x1="343" y1="148" x2="355" y2="148" style="stroke:#000000;stroke-width:1" />
    <circle cx="332" cy = "159" r = "11.662684505243327" stroke = "#000000" stroke-width = "1" fill = "#000000" />
    <line x1="343" y1="171" x2="343" y2="148" style="stroke:#000000;stroke-width:1" />
    <line x1="273" y1="171" x2="273" y2="148" style="stroke:#000000;stroke-width:1" />
    <line x1="343" y1="171" x2="355" y2="171" style="stroke:#000000;stroke-width:1" />
    <circle cx="285" cy = "183" r = "11.662684505243327" stroke = "#000000" stroke-width = "1" fill = "#000000" />
    <circle cx="332" cy = "183" r = "11.662684505243327" stroke = "#000000" stroke-width = "1" fill = "#000000" />
    <line x1="343" y1="194" x2="343" y2="171" style="stroke:#000000;stroke-width:1" />
    <line x1="273" y1="194" x2="273" y2="171" style="stroke:#000000;stroke-width:1" />
    <line x1="343" y1="194" x2="355" y2="194" style="stroke:#000000;stroke-width:1" />
    <line x1="273" y1="194" x2="262" y2="194" style="stroke:#000000;stroke-width:1" />
    <line x1="273" y1="194" x2="297" y2="194" style="stroke:#000000;stroke-width:1" />
    <line x1="297" y1="194" x2="320" y2="194" style="stroke:#000000;stroke-width:1" />
    <line x1="320" y1="194" x2="343" y2="194" style="stroke:#000000;stroke-width:1" />
    <line x1="320" y1="200" x2="320" y2="188" style="stroke:#000000;stroke-width:1" />
    <line x1="297" y1="200" x2="297" y2="188" style="stroke:#000000;stroke-width:1" />
    <circle cx="332" cy = "206" r = "11.662684505243327" stroke = "#000000" stroke-width = "1" fill = "#000000" />
    <line x1="343" y1="218" x2="343" y2="194" style="stroke:#000000;stroke-width:1" />
    <line x1="273" y1="218" x2="273" y2="194" style="stroke:#000000;stroke-width:1" />
    <line x1="343" y1="218" x2="355" y2="218" style="stroke:#000000;stroke-width:1" />
    <line x1="343" y1="241" x2="343" y2="218" style="stroke:#000000;stroke-width:1" />
    <line x1="273" y1="241" x2="273" y2="218" style="stroke:#000000;stroke-width:1" />
    <line x1="343" y1="241" x2="355" y2="241" style="stroke:#000000;stroke-width:1" />
    <circle cx="332" cy = "253" r = "11.662684505243327" stroke = "#000000" stroke-width = "1" fill = "#000000" />
    <line x1="343" y1="264" x2="343" y2="241" style="stroke:#000000;stroke-width:1" />
    <line x1="273" y1="264" x2="273" y2="241" style="stroke:#000000;stroke-width:1" />
    <line x1="343" y1="264" x2="355" y2="264" style="stroke:#000000;stroke-width:1" />
    <line x1="273" y1="264" x2="262" y2="264" style="stroke:#000000;stroke-width:1" />
    <line x1="273" y1="264" x2="297" y2="264" style="stroke:#000000;stroke-width:1" />
    <line x1="297" y1="264" x2="320" y2="264" style="stroke:#000000;stroke-width:1" />
    <line x1="320" y1="264" x2="343" y2="264" style="stroke:#000000;stroke-width:1" />
    <line x1="320" y1="270" x2="320" y2="258" style="stroke:#000000;stroke-width:1" />
    <line x1="297" y1="270" x2="297" y2="258" style="stroke:#000000;stroke-width:1" />
    <circle cx="332" cy = "276" r = "11.662684505243327" stroke = "#000000" stroke-width = "1" fill = "#000000" />
    <line x1="343" y1="288" x2="343" y2="264" style="stroke:#000000;stroke-width:1" />
    <line x1="273" y1="288" x2="273" y2="264" style="stroke:#000000;stroke-width:1" />
    <line x1="343" y1="288" x2="355" y2="288" style="stroke:#000000;stroke-width:1" />
    <circle cx="332" cy = "299" r = "11.662684505243327" stroke = "#000000" stroke-width = "1" fill = "#000000" />
    <line x1="343" y1="311" x2="343" y2="288" style="stroke:#000000;stroke-width:1" />
    <line x1="273" y1="311" x2="273" y2="288" style="stroke:#000000;stroke-width:1" />
    <line x1="343" y1="311" x2="355" y2="311" style="stroke:#000000;stroke-width:1" />
    <circle cx="285" cy = "323" r = "11.662684505243327" stroke = "#000000" stroke-width = "1" fill = "#000000" />
    <circle cx="308" cy = "323" r = "11.662684505243327" stroke = "#000000" stroke-width = "1" fill = "#000000" />
    <line x1="343" y1="334" x2="343" y2="311" style="stroke:#000000;stroke-width:1" />
    <line x1="273" y1="334" x2="273" y2="311" style="stroke:#000000;stroke-width:1" />
    <line x1="343" y1="334" x2="355" y2="334" style="stroke:#000000;stroke-width:1" />
    <line x1="273" y1="334" x2="262" y2="334" style="stroke:#000000;stroke-width:1" />
    <line x1="273" y1="334" x2="297" y2="334" style="stroke:#000000;stroke-width:1" />
    <line x1="297" y1="334" x2="320" y2="334" style="stroke:#000000;stroke-width:1" />
    <line x1="320" y1="334" x2="343" y2="334" style="stroke:#000000;stroke-width:1" />
    <line x1="320" y1="340" x2="320" y2="328" style="stroke:#000000;stroke-width:1" />
    <line x1="297" y1="340" x2="297" y2="328" style="stroke:#000000;stroke-width:1" />
    <circle cx="332" cy = "346" r = "11.662684505243327" stroke = "#000000" stroke-width = "1" fill = "#000000" />
    <line x1="343" y1="358" x2="343" y2="334" style="stroke:#000000;stroke-width:1" />
    <line x1="273" y1="358" x2="273" y2="334" style="stroke:#000000;stroke-width:1" />
    <line x1="343" y1="358" x2="355" y2="358" style="stroke:#000000;stroke-width:1" />
    <circle cx="332" cy = "369" r = "11.662684505243327" stroke = "#000000" stroke-width = "1" fill = "#000000" />
    <circle cx="308" cy = "369" r = "11.662684505243327" stroke = "#000000" stroke-width = "1" fill = "#000000" />
    <line x1="343" y1="381" x2="343" y2="358" style="stroke:#000000;stroke-width:1" />
    <line x1="273" y1="381" x2="273" y2="358" style="stroke:#000000;stroke-width:1" />
    <line x1="343" y1="381" x2="355" y2="381" style="stroke:#000000;stroke-width:1" />
    <circle cx="332" cy = "393" r = "11.662684505243327" stroke = "#000000" stroke-width = "1" fill = "#000000" />
    <line x1="343" y1="404" x2="343" y2="381" style="stroke:#000000;stroke-width:1" />
    <line x1="273" y1="404" x2="273" y2="381" style="stroke:#000000;stroke-width:1" />
    <line x1="343" y1="404" x2="355" y2="404" style="stroke:#000000;stroke-width:1" />
    <line x1="273" y1="404" x2="262" y2="404" style="stroke:#000000;stroke-width:1" />
    <line x1="273" y1="404" x2="297" y2="404" style="stroke:#000000;stroke-width:1" />
    <line x1="297" y1="404" x2="320" y2="404" style="stroke:#000000;stroke-width:1" />
    <line x1="320" y1="404" x2="343" y2="404" style="stroke:#000000;stroke-width:1" />
    <line x1="320" y1="410" x2="320" y2="398" style="stroke:#000000;stroke-width:1" />
    <line x1="297" y1="410" x2="297" y2="398" style="stroke:#000000;stroke-width:1" />
    <line x1="343" y1="428" x2="320" y2="428" style="stroke:#000000;stroke-width:1" />
    <line x1="320" y1="428" x2="297" y2="428" style="stroke:#000000;stroke-width:1" />
    <line x1="297" y1="428" x2="273" y2="428" style="stroke:#000000;stroke-width:1" />
    <line x1="273" y1="428" x2="273" y2="404" style="stroke:#000000;stroke-width:1" />
    <line x1="273" y1="404" x2="297" y2="404" style="stroke:#000000;stroke-width:1" />
    <line x1="297" y1="404" x2="320" y2="404" style="stroke:#000000;stroke-width:1" />
    <line x1="320" y1="404" x2="343" y2="404" style="stroke:#000000;stroke-width:1" />
    <line x1="343" y1="428" x2="343" y2="404" style="stroke:#000000;stroke-width:1" />
	<path d = "M320 428 L320 404 L297 404 L297 428 L320 428 Z" stroke = "#000000" stroke-width = "1" fill = "#000000" />  <path d="M308.2365774737847 427.5010582695348           A34.98805351572998 34.98805351572998 0 0 1 273.2485239580556 462.48911178526544" fill = "none" stroke = "#000000" stroke-width = "5" />
	<path d = "M250 462 L273 486 L273 439 L250 462 Z" stroke = "#000000" stroke-width = "1" fill = "#000000" />	<path d = "M273 428 L273 404 L250 428 L273 428 Z" stroke = "#000000" stroke-width = "1" fill = "#000000" />	<path d = "M250 101 L227 101 L227 124 L250 101 Z" stroke = "#000000" stroke-width = "1" fill = "#000000" />    <line x1="227" y1="124" x2="203" y2="124" style="stroke:#000000;stroke-width:1" />
    <line x1="203" y1="124" x2="180" y2="124" style="stroke:#000000;stroke-width:1" />
    <line x1="180" y1="124" x2="157" y2="124" style="stroke:#000000;stroke-width:1" />
    <line x1="157" y1="124" x2="157" y2="101" style="stroke:#000000;stroke-width:1" />
    <line x1="157" y1="101" x2="180" y2="101" style="stroke:#000000;stroke-width:1" />
    <line x1="180" y1="101" x2="203" y2="101" style="stroke:#000000;stroke-width:1" />
    <line x1="203" y1="101" x2="227" y2="101" style="stroke:#000000;stroke-width:1" />
	<path d = "M192 124 L215 101 L168 101 L192 124 Z" stroke = "#000000" stroke-width = "1" fill = "#000000" />  <path d="M191.60973242136163 100.94589212272076           A34.98805351572998 34.98805351572998 0 0 1 226.5977859370931 65.95783860699248" fill = "none" stroke = "#000000" stroke-width = "5" />
    <line x1="227" y1="124" x2="227" y2="101" style="stroke:#000000;stroke-width:1" />
    <line x1="157" y1="124" x2="157" y2="101" style="stroke:#000000;stroke-width:1" />
    <line x1="227" y1="124" x2="238" y2="124" style="stroke:#000000;stroke-width:1" />
    <line x1="157" y1="124" x2="145" y2="124" style="stroke:#000000;stroke-width:1" />
    <line x1="157" y1="124" x2="180" y2="124" style="stroke:#000000;stroke-width:1" />
    <line x1="180" y1="124" x2="203" y2="124" style="stroke:#000000;stroke-width:1" />
    <line x1="203" y1="124" x2="227" y2="124" style="stroke:#000000;stroke-width:1" />
    <line x1="203" y1="130" x2="203" y2="118" style="stroke:#000000;stroke-width:1" />
    <line x1="180" y1="130" x2="180" y2="118" style="stroke:#000000;stroke-width:1" />
    <circle cx="215" cy = "136" r = "11.662684505243327" stroke = "#000000" stroke-width = "1" fill = "#000000" />
    <line x1="227" y1="148" x2="227" y2="124" style="stroke:#000000;stroke-width:1" />
    <line x1="157" y1="148" x2="157" y2="124" style="stroke:#000000;stroke-width:1" />
    <line x1="227" y1="148" x2="238" y2="148" style="stroke:#000000;stroke-width:1" />
    <circle cx="192" cy = "159" r = "11.662684505243327" stroke = "#000000" stroke-width = "1" fill = "#000000" />
    <line x1="227" y1="171" x2="227" y2="148" style="stroke:#000000;stroke-width:1" />
    <line x1="157" y1="171" x2="157" y2="148" style="stroke:#000000;stroke-width:1" />
    <line x1="227" y1="171" x2="238" y2="171" style="stroke:#000000;stroke-width:1" />
    <circle cx="215" cy = "183" r = "11.662684505243327" stroke = "#000000" stroke-width = "1" fill = "#000000" />
    <circle cx="192" cy = "183" r = "11.662684505243327" stroke = "#000000" stroke-width = "1" fill = "#000000" />
    <line x1="227" y1="194" x2="227" y2="171" style="stroke:#000000;stroke-width:1" />
    <line x1="157" y1="194" x2="157" y2="171" style="stroke:#000000;stroke-width:1" />
    <line x1="227" y1="194" x2="238" y2="194" style="stroke:#000000;stroke-width:1" />
    <line x1="157" y1="194" x2="145" y2="194" style="stroke:#000000;stroke-width:1" />
    <line x1="157" y1="194" x2="180" y2="194" style="stroke:#000000;stroke-width:1" />
    <line x1="180" y1="194" x2="203" y2="194" style="stroke:#000000;stroke-width:1" />
    <line x1="203" y1="194" x2="227" y2="194" style="stroke:#000000;stroke-width:1" />
    <line x1="203" y1="200" x2="203" y2="188" style="stroke:#000000;stroke-width:1" />
    <line x1="180" y1="200" x2="180" y2="188" style="stroke:#000000;stroke-width:1" />
    <circle cx="215" cy = "206" r = "11.662684505243327" stroke = "#000000" stroke-width = "1" fill = "#000000" />
    <line x1="227" y1="218" x2="227" y2="194" style="stroke:#000000;stroke-width:1" />
    <line x1="157" y1="218" x2="157" y2="194" style="stroke:#000000;stroke-width:1" />
    <line x1="227" y1="218" x2="238" y2="218" style="stroke:#000000;stroke-width:1" />
    <line x1="227" y1="241" x2="227" y2="218" style="stroke:#000000;stroke-width:1" />
    <line x1="157" y1="241" x2="157" y2="218" style="stroke:#000000;stroke-width:1" />
    <line x1="227" y1="241" x2="238" y2="241" style="stroke:#000000;stroke-width:1" />
    <circle cx="168" cy = "253" r = "11.662684505243327" stroke = "#000000" stroke-width = "1" fill = "#000000" />
    <circle cx="215" cy = "253" r = "11.662684505243327" stroke = "#000000" stroke-width = "1" fill = "#000000" />
    <line x1="227" y1="264" x2="227" y2="241" style="stroke:#000000;stroke-width:1" />
    <line x1="157" y1="264" x2="157" y2="241" style="stroke:#000000;stroke-width:1" />
    <line x1="227" y1="264" x2="238" y2="264" style="stroke:#000000;stroke-width:1" />
    <line x1="157" y1="264" x2="145" y2="264" style="stroke:#000000;stroke-width:1" />
    <line x1="157" y1="264" x2="180" y2="264" style="stroke:#000000;stroke-width:1" />
    <line x1="180" y1="264" x2="203" y2="264" style="stroke:#000000;stroke-width:1" />
    <line x1="203" y1="264" x2="227" y2="264" style="stroke:#000000;stroke-width:1" />
    <line x1="203" y1="270" x2="203" y2="258" style="stroke:#000000;stroke-width:1" />
    <line x1="180" y1="270" x2="180" y2="258" style="stroke:#000000;stroke-width:1" />
    <circle cx="215" cy = "276" r = "11.662684505243327" stroke = "#000000" stroke-width = "1" fill = "#000000" />
    <line x1="227" y1="288" x2="227" y2="264" style="stroke:#000000;stroke-width:1" />
    <line x1="157" y1="288" x2="157" y2="264" style="stroke:#000000;stroke-width:1" />
    <line x1="227" y1="288" x2="238" y2="288" style="stroke:#000000;stroke-width:1" />
    <line x1="227" y1="311" x2="227" y2="288" style="stroke:#000000;stroke-width:1" />
    <line x1="157" y1="311" x2="157" y2="288" style="stroke:#000000;stroke-width:1" />
    <line x1="227" y1="311" x2="238" y2="311" style="stroke:#000000;stroke-width:1" />
    <circle cx="215" cy = "323" r = "11.662684505243327" stroke = "#000000" stroke-width = "1" fill = "#000000" />
    <circle cx="192" cy = "323" r = "11.662684505243327" stroke = "#000000" stroke-width = "1" fill = "#000000" />
    <line x1="227" y1="334" x2="227" y2="311" style="stroke:#000000;stroke-width:1" />
    <line x1="157" y1="334" x2="157" y2="311" style="stroke:#000000;stroke-width:1" />
    <line x1="227" y1="334" x2="238" y2="334" style="stroke:#000000;stroke-width:1" />
    <line x1="157" y1="334" x2="145" y2="334" style="stroke:#000000;stroke-width:1" />
    <line x1="157" y1="334" x2="180" y2="334" style="stroke:#000000;stroke-width:1" />
    <line x1="180" y1="334" x2="203" y2="334" style="stroke:#000000;stroke-width:1" />
    <line x1="203" y1="334" x2="227" y2="334" style="stroke:#000000;stroke-width:1" />
    <line x1="203" y1="340" x2="203" y2="328" style="stroke:#000000;stroke-width:1" />
    <line x1="180" y1="340" x2="180" y2="328" style="stroke:#000000;stroke-width:1" />
    <circle cx="215" cy = "346" r = "11.662684505243327" stroke = "#000000" stroke-width = "1" fill = "#000000" />
    <line x1="227" y1="358" x2="227" y2="334" style="stroke:#000000;stroke-width:1" />
    <line x1="157" y1="358" x2="157" y2="334" style="stroke:#000000;stroke-width:1" />
    <line x1="227" y1="358" x2="238" y2="358" style="stroke:#000000;stroke-width:1" />
    <circle cx="192" cy = "369" r = "11.662684505243327" stroke = "#000000" stroke-width = "1" fill = "#000000" />
    <line x1="227" y1="381" x2="227" y2="358" style="stroke:#000000;stroke-width:1" />
    <line x1="157" y1="381" x2="157" y2="358" style="stroke:#000000;stroke-width:1" />
    <line x1="227" y1="381" x2="238" y2="381" style="stroke:#000000;stroke-width:1" />
    <circle cx="192" cy = "393" r = "11.662684505243327" stroke = "#000000" stroke-width = "1" fill = "#000000" />
    <line x1="227" y1="404" x2="227" y2="381" style="stroke:#000000;stroke-width:1" />
    <line x1="157" y1="404" x2="157" y2="381" style="stroke:#000000;stroke-width:1" />
    <line x1="227" y1="404" x2="238" y2="404" style="stroke:#000000;stroke-width:1" />
    <line x1="157" y1="404" x2="145" y2="404" style="stroke:#000000;stroke-width:1" />
    <line x1="157" y1="404" x2="180" y2="404" style="stroke:#000000;stroke-width:1" />
    <line x1="180" y1="404" x2="203" y2="404" style="stroke:#000000;stroke-width:1" />
    <line x1="203" y1="404" x2="227" y2="404" style="stroke:#000000;stroke-width:1" />
    <line x1="203" y1="410" x2="203" y2="398" style="stroke:#000000;stroke-width:1" />
    <line x1="180" y1="410" x2="180" y2="398" style="stroke:#000000;stroke-width:1" />
    <circle cx="215" cy = "416" r = "11.662684505243327" stroke = "#000000" stroke-width = "1" fill = "#000000" />
    <line x1="227" y1="428" x2="227" y2="404" style="stroke:#000000;stroke-width:1" />
    <line x1="157" y1="428" x2="157" y2="404" style="stroke:#000000;stroke-width:1" />
    <line x1="227" y1="428" x2="238" y2="428" style="stroke:#000000;stroke-width:1" />
    <line x1="227" y1="451" x2="227" y2="428" style="stroke:#000000;stroke-width:1" />
    <line x1="157" y1="451" x2="157" y2="428" style="stroke:#000000;stroke-width:1" />
    <line x1="227" y1="451" x2="238" y2="451" style="stroke:#000000;stroke-width:1" />
    <circle cx="168" cy = "462" r = "11.662684505243327" stroke = "#000000" stroke-width = "1" fill = "#000000" />
    <circle cx="215" cy = "462" r = "11.662684505243327" stroke = "#000000" stroke-width = "1" fill = "#000000" />
    <line x1="227" y1="474" x2="227" y2="451" style="stroke:#000000;stroke-width:1" />
    <line x1="157" y1="474" x2="157" y2="451" style="stroke:#000000;stroke-width:1" />
    <line x1="227" y1="474" x2="238" y2="474" style="stroke:#000000;stroke-width:1" />
    <line x1="157" y1="474" x2="145" y2="474" style="stroke:#000000;stroke-width:1" />
    <line x1="157" y1="474" x2="180" y2="474" style="stroke:#000000;stroke-width:1" />
    <line x1="180" y1="474" x2="203" y2="474" style="stroke:#000000;stroke-width:1" />
    <line x1="203" y1="474" x2="227" y2="474" style="stroke:#000000;stroke-width:1" />
    <line x1="203" y1="480" x2="203" y2="468" style="stroke:#000000;stroke-width:1" />
    <line x1="180" y1="480" x2="180" y2="468" style="stroke:#000000;stroke-width:1" />
    <circle cx="215" cy = "486" r = "11.662684505243327" stroke = "#000000" stroke-width = "1" fill = "#000000" />
    <line x1="227" y1="497" x2="227" y2="474" style="stroke:#000000;stroke-width:1" />
    <line x1="157" y1="497" x2="157" y2="474" style="stroke:#000000;stroke-width:1" />
    <line x1="227" y1="497" x2="238" y2="497" style="stroke:#000000;stroke-width:1" />
    <circle cx="192" cy = "509" r = "11.662684505243327" stroke = "#000000" stroke-width = "1" fill = "#000000" />
    <line x1="227" y1="521" x2="227" y2="497" style="stroke:#000000;stroke-width:1" />
    <line x1="157" y1="521" x2="157" y2="497" style="stroke:#000000;stroke-width:1" />
    <line x1="227" y1="521" x2="238" y2="521" style="stroke:#000000;stroke-width:1" />
    <circle cx="168" cy = "532" r = "11.662684505243327" stroke = "#000000" stroke-width = "1" fill = "#000000" />
    <line x1="227" y1="544" x2="227" y2="521" style="stroke:#000000;stroke-width:1" />
    <line x1="157" y1="544" x2="157" y2="521" style="stroke:#000000;stroke-width:1" />
    <line x1="227" y1="544" x2="238" y2="544" style="stroke:#000000;stroke-width:1" />
    <line x1="157" y1="544" x2="145" y2="544" style="stroke:#000000;stroke-width:1" />
    <line x1="157" y1="544" x2="180" y2="544" style="stroke:#000000;stroke-width:1" />
    <line x1="180" y1="544" x2="203" y2="544" style="stroke:#000000;stroke-width:1" />
    <line x1="203" y1="544" x2="227" y2="544" style="stroke:#000000;stroke-width:1" />
    <line x1="203" y1="550" x2="203" y2="538" style="stroke:#000000;stroke-width:1" />
    <line x1="180" y1="550" x2="180" y2="538" style="stroke:#000000;stroke-width:1" />
    <circle cx="215" cy = "556" r = "11.662684505243327" stroke = "#000000" stroke-width = "1" fill = "#000000" />
    <line x1="227" y1="567" x2="227" y2="544" style="stroke:#000000;stroke-width:1" />
    <line x1="157" y1="567" x2="157" y2="544" style="stroke:#000000;stroke-width:1" />
    <line x1="227" y1="567" x2="238" y2="567" style="stroke:#000000;stroke-width:1" />
    <circle cx="192" cy = "579" r = "11.662684505243327" stroke = "#000000" stroke-width = "1" fill = "#000000" />
    <line x1="227" y1="591" x2="227" y2="567" style="stroke:#000000;stroke-width:1" />
    <line x1="157" y1="591" x2="157" y2="567" style="stroke:#000000;stroke-width:1" />
    <line x1="227" y1="591" x2="238" y2="591" style="stroke:#000000;stroke-width:1" />
    <circle cx="215" cy = "602" r = "11.662684505243327" stroke = "#000000" stroke-width = "1" fill = "#000000" />
    <circle cx="192" cy = "602" r = "11.662684505243327" stroke = "#000000" stroke-width = "1" fill = "#000000" />
    <line x1="227" y1="614" x2="227" y2="591" style="stroke:#000000;stroke-width:1" />
    <line x1="157" y1="614" x2="157" y2="591" style="stroke:#000000;stroke-width:1" />
    <line x1="227" y1="614" x2="238" y2="614" style="stroke:#000000;stroke-width:1" />
    <line x1="157" y1="614" x2="145" y2="614" style="stroke:#000000;stroke-width:1" />
    <line x1="157" y1="614" x2="180" y2="614" style="stroke:#000000;stroke-width:1" />
    <line x1="180" y1="614" x2="203" y2="614" style="stroke:#000000;stroke-width:1" />
    <line x1="203" y1="614" x2="227" y2="614" style="stroke:#000000;stroke-width:1" />
    <line x1="203" y1="620" x2="203" y2="608" style="stroke:#000000;stroke-width:1" />
    <line x1="180" y1="620" x2="180" y2="608" style="stroke:#000000;stroke-width:1" />
	<path d = "M227 637 L227 614 L203 614 L203 637 L227 637 Z" stroke = "#000000" stroke-width = "1" fill = "#000000" />	<path d = "M180 637 L180 614 L157 614 L157 637 L180 637 Z" stroke = "#000000" stroke-width = "1" fill = "#000000" />	<path d = "M203 661 L203 637 L180 637 L180 661 L203 661 Z" stroke = "#000000" stroke-width = "1" fill = "#000000" /></svg>